# xmcd
#
# Track frame offsets: 
#        150
#        15225
#        31697
#        47453
#        61711
#        73283
#        81573
#        91762
#        105072
#        118889
#        136221
#        147468
#
# Disc length: 2171 seconds
#
# Revision: 0
# Processed by: cddbd v1.5.2PL0 Copyright (c) Steve Scherf et al.
# Submitted via: ExactAudioCopy v0.99pb4
#
DISCID=9308790c
DTITLE=Jeannie C. Riley - Yearbooks and Yesterdays
DYEAR=1900
DGENRE=Classic Country
TTITLE0=Yearbooks and Yesterdays
TTITLE1=What Was Her Name
TTITLE2=Edna Burgoo
TTITLE3=My Scrapbook
TTITLE4=The Part of Honey
TTITLE5=Whatever Happened to Charlie Brown
TTITLE6=The Girl Most Likely
TTITLE7=Back to School
TTITLE8=That's How It Was With Him and Me
TTITLE9=Teardrops On Page Forty-Three
TTITLE10=Box of Memories
TTITLE11=A Taste of Tears
EXTD=
EXTT0=
EXTT1=
EXTT2=
EXTT3=
EXTT4=
EXTT5=
EXTT6=
EXTT7=
EXTT8=
EXTT9=
EXTT10=
EXTT11=
PLAYORDER=
